<?xml version="1.0" standalone="no" ?>
<!DOCTYPE svg PUBLIC "-//W3C//DTD SVG 1.1//EN" "http://www.w3.org/Graphics/SVG/1.1/DTD/svg11.dtd">
<svg width="765px" height="159px" viewBox="0 0 765 159" style="background-color: #ffffff00" xmlns="http://www.w3.org/2000/svg" xmlns:xlink="http://www.w3.org/1999/xlink" version="1.1" >
<path stroke="none" fill="#000000" transform="matrix(0.0833333 0 0 0.0833333 -28.2083 -626)" d="M 6814.56,8112.27 L 4008.41,8112.27 L 4008.41,8097.27 L 6814.56,8097.27 Z " />
<path stroke="none" fill="#000000" transform="matrix(0.0833333 0 0 0.0833333 -28.2083 -626)" d="M 6944.81,8104.77 C 6944.81,8104.77 6794.81,8143.27 6794.81,8143.27 C 6794.81,8143.27 6813.56,8121.61 6813.56,8104.77 C 6813.56,8087.49 6794.81,8065.27 6794.81,8065.27 C 6794.81,8065.27 6944.81,8104.77 6944.81,8104.77 C 6944.81,8104.77 6944.81,8104.77 6944.81,8104.77 " />
<path stroke="#000000" stroke-width="1" fill="none" transform="matrix(0.0833333 0 0 0.0833333 -28.2083 -626)" d="M 6944.81,8104.77 C 6944.81,8104.77 6794.81,8143.27 6794.81,8143.27 C 6794.81,8143.27 6813.56,8121.61 6813.56,8104.77 C 6813.56,8087.49 6794.81,8065.27 6794.81,8065.27 C 6794.81,8065.27 6944.81,8104.77 6944.81,8104.77 C 6944.81,8104.77 6944.81,8104.77 6944.81,8104.77 " />
<text x="0" y="0" stroke="none" fill="#0080c0" transform="matrix(0.0833333 0 0 0.0833333 205.803 38.0789)" font-style="normal" font-weight="bold" font-size="240px" font-family="Arial" >
N</text>
<path stroke="none" fill="#0080c0" transform="matrix(0.0833333 0 0 0.0833333 -28.2083 -626)" d="M 2607.85,8380.12 L 2592.85,8388.78 L 2592.85,8040.12 L 2607.85,8048.78 L 2607.85,8380.12 Z " />
<path stroke="none" fill="#0080c0" transform="matrix(0.0833333 0 0 0.0833333 -28.2083 -626)" d="M 2894.8,8545.79 L 2894.8,8563.11 L 2592.85,8388.78 L 2607.85,8380.12 L 2894.8,8545.79 Z " />
<path stroke="none" fill="#0080c0" transform="matrix(0.0833333 0 0 0.0833333 -28.2083 -626)" d="M 3181.75,8380.12 L 3196.75,8388.78 L 2894.8,8563.11 L 2894.8,8545.79 L 3181.75,8380.12 Z " />
<path stroke="none" fill="#0080c0" transform="matrix(0.0833333 0 0 0.0833333 -28.2083 -626)" d="M 3181.75,8048.78 L 3196.75,8040.12 L 3196.75,8177.97 L 3181.75,8177.97 L 3181.75,8048.78 L 3181.75,8048.78 Z " />
<path stroke="none" fill="#0080c0" transform="matrix(0.0833333 0 0 0.0833333 -28.2083 -626)" d="M 3196.75,8388.78 L 3181.75,8380.12 L 3181.75,8272.97 L 3196.75,8272.97 L 3196.75,8388.78 L 3196.75,8388.78 Z " />
<path stroke="none" fill="#0080c0" transform="matrix(0.0833333 0 0 0.0833333 -28.2083 -626)" d="M 3014.3,7952.1 L 3021.8,7939.11 L 3196.75,8040.12 L 3181.75,8048.78 L 3014.3,7952.1 Z " />
<path stroke="none" fill="#0080c0" transform="matrix(0.0833333 0 0 0.0833333 -28.2083 -626)" d="M 2607.85,8048.78 L 2592.85,8040.12 L 2766.81,7939.68 L 2774.31,7952.67 L 2607.85,8048.78 Z " />
<path stroke="none" fill="#ffffff" transform="matrix(0.0833333 0 0 0.0833333 -28.2083 -626)" d="M 2685.2,8214.45 A 211.563,211.563 0 1 0 3108.33,8214.45A 211.563,211.563 0 1 0 2685.2,8214.45Z " />
<path stroke="#0080c0" stroke-width="15" fill="none" transform="matrix(0.0833333 0 0 0.0833333 -28.2083 -626)" d="M 2685.2,8214.45 A 211.563,211.563 0 1 0 3108.33,8214.45A 211.563,211.563 0 1 0 2685.2,8214.45Z " />
<text x="0" y="0" stroke="none" fill="#0080c0" transform="matrix(0.0833333 0 0 0.0833333 197.385 66.4077)" font-style="normal" font-weight="normal" font-size="240px" font-family="Arial" >
Het</text>
<text x="0" y="0" stroke="none" fill="#000000" transform="matrix(0.0833333 0 0 0.0833333 126.521 38.1167)" font-style="normal" font-weight="normal" font-size="240px" font-family="Arial" >
NHR</text>
<path stroke="none" fill="#000000" transform="matrix(0.0833333 0 0 0.0833333 -28.2083 -626)" d="M 1769.39,7588.98 L 1777.44,7572.93 L 1880.3,7751.09 L 1867.31,7758.59 L 1769.39,7588.98 Z " />
<path stroke="none" fill="#000000" transform="matrix(0.0833333 0 0 0.0833333 -28.2083 -626)" d="M 1440.94,7627.76 L 1430.58,7613.88 L 1777.44,7572.93 L 1769.39,7588.98 L 1440.94,7627.76 Z " />
<path stroke="none" fill="#000000" transform="matrix(0.0833333 0 0 0.0833333 -28.2083 -626)" d="M 1310.06,7932.15 L 1301.46,7933.17 L 1295.89,7927.14 L 1430.58,7613.88 L 1440.94,7627.76 L 1310.06,7932.15 Z " />
<path stroke="none" fill="#000000" transform="matrix(0.0833333 0 0 0.0833333 -28.2083 -626)" d="M 1514.08,8205.53 L 1495.54,8205.77 L 1298.71,7942.02 L 1301.46,7933.17 L 1310.06,7932.15 L 1514.08,8205.53 Z " />
<path stroke="none" fill="#000000" transform="matrix(0.0833333 0 0 0.0833333 -28.2083 -626)" d="M 1435.18,8202.13 L 1423.16,8211.11 L 1272.99,8009.89 L 1285.02,8000.92 L 1435.18,8202.13 Z " />
<text x="0" y="0" stroke="none" fill="#000000" transform="matrix(0.0833333 0 0 0.0833333 73.6116 88.7711)" font-style="normal" font-weight="normal" font-size="240px" font-family="Arial" >
N</text>
<text x="0" y="0" stroke="none" fill="#000000" transform="matrix(0.0833333 0 0 0.0833333 73.6116 105.396)" font-style="normal" font-weight="normal" font-size="240px" font-family="Arial" >
H</text>
<path stroke="none" fill="#000000" transform="matrix(0.0833333 0 0 0.0833333 -28.2083 -626)" d="M 987.04,8047.72 L 979.471,8042.36 L 980.224,8034.19 L 1295.89,7927.14 L 1301.46,7933.17 L 1298.71,7942.02 L 987.04,8047.72 Z " />
<path stroke="none" fill="#000000" transform="matrix(0.0833333 0 0 0.0833333 -28.2083 -626)" d="M 991.252,8376.79 L 983.822,8382.33 L 976.268,8378.1 L 972.027,8046.79 L 979.471,8042.36 L 987.04,8047.72 L 991.252,8376.79 Z " />
<path stroke="none" fill="#000000" transform="matrix(0.0833333 0 0 0.0833333 -28.2083 -626)" d="M 929.674,8347.69 L 914.676,8347.88 L 911.228,8078.57 L 926.227,8078.38 L 929.674,8347.69 Z " />
<path stroke="none" fill="#000000" transform="matrix(0.0833333 0 0 0.0833333 -28.2083 -626)" d="M 1190.85,8438.83 L 1186.39,8453.15 L 984.785,8390.49 L 983.822,8382.33 L 991.252,8376.79 L 1190.85,8438.83 Z " />
<path stroke="none" fill="#000000" transform="matrix(0.0833333 0 0 0.0833333 -28.2083 -626)" d="M 1495.54,8205.77 L 1514.08,8205.53 L 1395.43,8373.32 L 1383.18,8364.66 L 1495.54,8205.77 Z " />
<path stroke="none" fill="#000000" transform="matrix(0.0833333 0 0 0.0833333 -28.2083 -626)" d="M 682.981,7884.81 L 682.759,7867.49 L 980.224,8034.19 L 979.471,8042.36 L 972.027,8046.79 L 682.981,7884.81 Z " />
<path stroke="none" fill="#000000" transform="matrix(0.0833333 0 0 0.0833333 -28.2083 -626)" d="M 398.176,8054.13 L 383.067,8045.67 L 682.759,7867.49 L 682.981,7884.81 L 398.176,8054.13 Z " />
<path stroke="none" fill="#000000" transform="matrix(0.0833333 0 0 0.0833333 -28.2083 -626)" d="M 456.101,8090.89 L 448.436,8078 L 679.942,7940.36 L 687.607,7953.25 L 456.101,8090.89 Z " />
<path stroke="none" fill="#000000" transform="matrix(0.0833333 0 0 0.0833333 -28.2083 -626)" d="M 402.417,8385.45 L 387.529,8394.3 L 383.067,8045.67 L 398.176,8054.13 L 402.417,8385.45 Z " />
<path stroke="none" fill="#000000" transform="matrix(0.0833333 0 0 0.0833333 -28.2083 -626)" d="M 691.463,8547.43 L 691.684,8564.75 L 387.529,8394.3 L 402.417,8385.45 L 691.463,8547.43 Z " />
<path stroke="none" fill="#000000" transform="matrix(0.0833333 0 0 0.0833333 -28.2083 -626)" d="M 694.336,8478.89 L 687.002,8491.97 L 452.049,8360.3 L 459.382,8347.22 L 694.336,8478.89 Z " />
<path stroke="none" fill="#000000" transform="matrix(0.0833333 0 0 0.0833333 -28.2083 -626)" d="M 976.268,8378.1 L 983.822,8382.33 L 984.785,8390.49 L 691.684,8564.75 L 691.463,8547.43 L 976.268,8378.1 Z " />
<text x="0" y="0" stroke="none" fill="#000000" transform="matrix(0.0833333 0 0 0.0833333 253.147 67.2888)" font-style="normal" font-weight="normal" font-size="240px" font-family="Arial" >
CHO</text>
<path stroke="none" fill="#000000" transform="matrix(0.0833333 0 0 0.0833333 -28.2083 -626)" d="M 3349.26,8217.97 L 3349.26,8232.97 L 3122.92,8232.97 L 3122.92,8217.97 L 3349.26,8217.97 Z " />
<text x="0" y="0" stroke="none" fill="#000000" transform="matrix(0.0833333 0 0 0.0833333 424.638 86.4324)" font-style="normal" font-weight="normal" font-size="240px" font-family="Arial" >
CO</text>
<text x="0" y="0" stroke="none" fill="#000000" transform="matrix(0.0833333 0 0 0.0833333 454.638 90.7657)" font-style="normal" font-weight="normal" font-size="180px" font-family="Arial" >
2</text>
<text x="0" y="0" stroke="none" fill="#000000" transform="matrix(0.0833333 0 0 0.0833333 462.98 86.4324)" font-style="normal" font-weight="normal" font-size="240px" font-family="Arial" >
H</text>
<path stroke="none" fill="#000000" transform="matrix(0.0833333 0 0 0.0833333 -28.2083 -626)" d="M 5407.15,8447.69 L 5407.15,8462.69 L 5025.37,8462.69 L 5025.37,8447.69 L 5407.15,8447.69 Z " />
<path stroke="none" fill="#008080" transform="matrix(0.0833333 0 0 0.0833333 -28.2083 -626)" d="M 4886.3,8431.9 A 204,204 0 1 0 5294.3,8431.9A 204,204 0 1 0 4886.3,8431.9Z " />
<path stroke="none" fill="#0f8787" transform="matrix(0.0833333 0 0 0.0833333 -28.2083 -626)" d="M 4888.7,8428.71 A 198.422,198.422 0 1 0 5285.54,8428.71A 198.422,198.422 0 1 0 4888.7,8428.71Z " />
<path stroke="none" fill="#1e8f8f" transform="matrix(0.0833333 0 0 0.0833333 -28.2083 -626)" d="M 4891.09,8425.53 A 192.844,192.844 0 1 0 5276.77,8425.53A 192.844,192.844 0 1 0 4891.09,8425.53Z " />
<path stroke="none" fill="#2d9696" transform="matrix(0.0833333 0 0 0.0833333 -28.2083 -626)" d="M 4893.48,8422.34 A 187.266,187.266 0 1 0 5268.01,8422.34A 187.266,187.266 0 1 0 4893.48,8422.34Z " />
<path stroke="none" fill="#3b9d9d" transform="matrix(0.0833333 0 0 0.0833333 -28.2083 -626)" d="M 4895.87,8419.15 A 181.688,181.688 0 1 0 5259.24,8419.15A 181.688,181.688 0 1 0 4895.87,8419.15Z " />
<path stroke="none" fill="#49a4a4" transform="matrix(0.0833333 0 0 0.0833333 -28.2083 -626)" d="M 4898.26,8415.96 A 176.109,176.109 0 1 0 5250.48,8415.96A 176.109,176.109 0 1 0 4898.26,8415.96Z " />
<path stroke="none" fill="#56abab" transform="matrix(0.0833333 0 0 0.0833333 -28.2083 -626)" d="M 4900.65,8412.78 A 170.531,170.531 0 1 0 5241.71,8412.78A 170.531,170.531 0 1 0 4900.65,8412.78Z " />
<path stroke="none" fill="#63b1b1" transform="matrix(0.0833333 0 0 0.0833333 -28.2083 -626)" d="M 4903.04,8409.59 A 164.953,164.953 0 1 0 5232.95,8409.59A 164.953,164.953 0 1 0 4903.04,8409.59Z " />
<path stroke="none" fill="#6fb7b7" transform="matrix(0.0833333 0 0 0.0833333 -28.2083 -626)" d="M 4905.43,8406.4 A 159.375,159.375 0 1 0 5224.18,8406.4A 159.375,159.375 0 1 0 4905.43,8406.4Z " />
<path stroke="none" fill="#7bbdbd" transform="matrix(0.0833333 0 0 0.0833333 -28.2083 -626)" d="M 4907.82,8403.21 A 153.797,153.797 0 1 0 5215.41,8403.21A 153.797,153.797 0 1 0 4907.82,8403.21Z " />
<path stroke="none" fill="#86c2c2" transform="matrix(0.0833333 0 0 0.0833333 -28.2083 -626)" d="M 4910.21,8400.03 A 148.219,148.219 0 1 0 5206.65,8400.03A 148.219,148.219 0 1 0 4910.21,8400.03Z " />
<path stroke="none" fill="#91c8c8" transform="matrix(0.0833333 0 0 0.0833333 -28.2083 -626)" d="M 4912.6,8396.84 A 142.641,142.641 0 1 0 5197.88,8396.84A 142.641,142.641 0 1 0 4912.6,8396.84Z " />
<path stroke="none" fill="#9bcdcd" transform="matrix(0.0833333 0 0 0.0833333 -28.2083 -626)" d="M 4914.99,8393.65 A 137.063,137.063 0 1 0 5189.12,8393.65A 137.063,137.063 0 1 0 4914.99,8393.65Z " />
<path stroke="none" fill="#a5d2d2" transform="matrix(0.0833333 0 0 0.0833333 -28.2083 -626)" d="M 4917.38,8390.46 A 131.484,131.484 0 1 0 5180.35,8390.46A 131.484,131.484 0 1 0 4917.38,8390.46Z " />
<path stroke="none" fill="#aed6d6" transform="matrix(0.0833333 0 0 0.0833333 -28.2083 -626)" d="M 4919.77,8387.28 A 125.906,125.906 0 1 0 5171.59,8387.28A 125.906,125.906 0 1 0 4919.77,8387.28Z " />
<path stroke="none" fill="#b7dbdb" transform="matrix(0.0833333 0 0 0.0833333 -28.2083 -626)" d="M 4922.16,8384.09 A 120.328,120.328 0 1 0 5162.82,8384.09A 120.328,120.328 0 1 0 4922.16,8384.09Z " />
<path stroke="none" fill="#bfdfdf" transform="matrix(0.0833333 0 0 0.0833333 -28.2083 -626)" d="M 4924.55,8380.9 A 114.75,114.75 0 1 0 5154.05,8380.9A 114.75,114.75 0 1 0 4924.55,8380.9Z " />
<path stroke="none" fill="#c6e3e3" transform="matrix(0.0833333 0 0 0.0833333 -28.2083 -626)" d="M 4926.95,8377.71 A 109.172,109.172 0 1 0 5145.29,8377.71A 109.172,109.172 0 1 0 4926.95,8377.71Z " />
<path stroke="none" fill="#cee6e6" transform="matrix(0.0833333 0 0 0.0833333 -28.2083 -626)" d="M 4929.34,8374.53 A 103.594,103.594 0 1 0 5136.52,8374.53A 103.594,103.594 0 1 0 4929.34,8374.53Z " />
<path stroke="none" fill="#d4eaea" transform="matrix(0.0833333 0 0 0.0833333 -28.2083 -626)" d="M 4931.73,8371.34 A 98.0157,98.0157 0 1 0 5127.76,8371.34A 98.0157,98.0157 0 1 0 4931.73,8371.34Z " />
<path stroke="none" fill="#dbeded" transform="matrix(0.0833333 0 0 0.0833333 -28.2083 -626)" d="M 4934.12,8368.15 A 92.4375,92.4375 0 1 0 5118.99,8368.15A 92.4375,92.4375 0 1 0 4934.12,8368.15Z " />
<path stroke="none" fill="#e0efef" transform="matrix(0.0833333 0 0 0.0833333 -28.2083 -626)" d="M 4936.51,8364.96 A 86.8594,86.8594 0 1 0 5110.23,8364.96A 86.8594,86.8594 0 1 0 4936.51,8364.96Z " />
<path stroke="none" fill="#e6f2f2" transform="matrix(0.0833333 0 0 0.0833333 -28.2083 -626)" d="M 4938.9,8361.78 A 81.2813,81.2813 0 1 0 5101.46,8361.78A 81.2813,81.2813 0 1 0 4938.9,8361.78Z " />
<path stroke="none" fill="#eaf4f4" transform="matrix(0.0833333 0 0 0.0833333 -28.2083 -626)" d="M 4941.29,8358.59 A 75.7032,75.7032 0 1 0 5092.7,8358.59A 75.7032,75.7032 0 1 0 4941.29,8358.59Z " />
<path stroke="none" fill="#eff7f7" transform="matrix(0.0833333 0 0 0.0833333 -28.2083 -626)" d="M 4943.68,8355.4 A 70.125,70.125 0 1 0 5083.93,8355.4A 70.125,70.125 0 1 0 4943.68,8355.4Z " />
<path stroke="none" fill="#f2f8f8" transform="matrix(0.0833333 0 0 0.0833333 -28.2083 -626)" d="M 4946.07,8352.21 A 64.5469,64.5469 0 1 0 5075.16,8352.21A 64.5469,64.5469 0 1 0 4946.07,8352.21Z " />
<path stroke="none" fill="#f6fafa" transform="matrix(0.0833333 0 0 0.0833333 -28.2083 -626)" d="M 4948.46,8349.03 A 58.9688,58.9688 0 1 0 5066.4,8349.03A 58.9688,58.9688 0 1 0 4948.46,8349.03Z " />
<path stroke="none" fill="#f8fbfb" transform="matrix(0.0833333 0 0 0.0833333 -28.2083 -626)" d="M 4950.85,8345.84 A 53.3907,53.3907 0 1 0 5057.63,8345.84A 53.3907,53.3907 0 1 0 4950.85,8345.84Z " />
<path stroke="none" fill="#fbfdfd" transform="matrix(0.0833333 0 0 0.0833333 -28.2083 -626)" d="M 4953.24,8342.65 A 47.8125,47.8125 0 1 0 5048.87,8342.65A 47.8125,47.8125 0 1 0 4953.24,8342.65Z " />
<path stroke="none" fill="#fcfdfd" transform="matrix(0.0833333 0 0 0.0833333 -28.2083 -626)" d="M 4955.63,8339.46 A 42.2344,42.2344 0 1 0 5040.1,8339.46A 42.2344,42.2344 0 1 0 4955.63,8339.46Z " />
<path stroke="none" fill="#fefefe" transform="matrix(0.0833333 0 0 0.0833333 -28.2083 -626)" d="M 4958.02,8336.28 A 36.6563,36.6563 0 1 0 5031.34,8336.28A 36.6563,36.6563 0 1 0 4958.02,8336.28Z " />
<path stroke="none" fill="#fefefe" transform="matrix(0.0833333 0 0 0.0833333 -28.2083 -626)" d="M 4960.41,8333.09 A 31.0782,31.0782 0 1 0 5022.57,8333.09A 31.0782,31.0782 0 1 0 4960.41,8333.09Z " />
<path stroke="#008080" stroke-width="15" fill="none" transform="matrix(0.0833333 0 0 0.0833333 -28.2083 -626)" d="M 4886.3,8431.9 A 204,204 0 1 0 5294.3,8431.9A 204,204 0 1 0 4886.3,8431.9Z " />
<text x="0" y="0" stroke="none" fill="#000000" transform="matrix(0.0833333 0 0 0.0833333 322.309 117.453)" font-style="normal" font-weight="normal" font-size="240px" font-family="Arial" >
Tunable </text>
<text x="0" y="0" stroke="none" fill="#000000" transform="matrix(0.0833333 0 0 0.0833333 400.141 117.453)" font-style="normal" font-weight="normal" font-size="240px" font-family="Arial" >
Carboxylic </text>
<text x="0" y="0" stroke="none" fill="#000000" transform="matrix(0.0833333 0 0 0.0833333 499.057 117.453)" font-style="normal" font-weight="normal" font-size="240px" font-family="Arial" >
Acid</text>
<text x="0" y="0" stroke="none" fill="#000000" transform="matrix(0.0833333 0 0 0.0833333 346.612 36.9594)" font-style="normal" font-weight="normal" font-size="240px" font-family="Arial" >
Chiral </text>
<text x="0" y="0" stroke="none" fill="#000000" transform="matrix(0.0833333 0 0 0.0833333 404.405 36.9594)" font-style="normal" font-weight="normal" font-size="240px" font-family="Arial" >
Squaramide</text>
<text x="0" y="0" stroke="none" fill="#000000" transform="matrix(0.0833333 0 0 0.0833333 678.508 26.8432)" font-style="normal" font-weight="normal" font-size="240px" font-family="Arial" >
NR</text>
<path stroke="none" fill="#000000" transform="matrix(0.0833333 0 0 0.0833333 -28.2083 -626)" d="M 8559.76,7873.62 L 8574.76,7873.62 L 8574.76,8075.79 L 8567.26,8080.12 L 8559.76,8075.79 L 8559.76,7873.62 Z " />
<path stroke="none" fill="#000000" transform="matrix(0.0833333 0 0 0.0833333 -28.2083 -626)" d="M 8272.81,7578.78 L 8272.81,7561.46 L 8452.93,7665.45 L 8445.43,7678.44 L 8272.81,7578.78 Z " />
<path stroke="none" fill="#000000" transform="matrix(0.0833333 0 0 0.0833333 -28.2083 -626)" d="M 7985.86,7744.45 L 7970.86,7735.79 L 8272.81,7561.46 L 8272.81,7578.78 L 7985.86,7744.45 Z " />
<path stroke="none" fill="#000000" transform="matrix(0.0833333 0 0 0.0833333 -28.2083 -626)" d="M 7985.86,8075.79 L 7978.36,8080.12 L 7970.86,8076.78 L 7970.86,7735.79 L 7985.86,7744.45 L 7985.86,8075.79 Z " />
<path stroke="none" fill="#000000" transform="matrix(0.0833333 0 0 0.0833333 -28.2083 -626)" d="M 8272.81,8241.46 L 8272.81,8250.12 L 8264.34,8253.89 L 7979.33,8089.34 L 7978.36,8080.12 L 7985.86,8075.79 L 8272.81,8241.46 Z " />
<path stroke="none" fill="#000000" transform="matrix(0.0833333 0 0 0.0833333 -28.2083 -626)" d="M 8207.46,8274.39 L 8199.96,8287.38 L 7982.52,8161.85 L 7990.02,8148.86 L 8207.46,8274.39 Z " />
<path stroke="none" fill="#000000" transform="matrix(0.0833333 0 0 0.0833333 -28.2083 -626)" d="M 8559.76,8075.79 L 8567.26,8080.12 L 8567.26,8088.78 L 8279.45,8254.94 L 8272.81,8250.12 L 8272.81,8241.46 L 8559.76,8075.79 Z " />
<text x="0" y="0" stroke="none" fill="#000000" transform="matrix(0.0833333 0 0 0.0833333 648.08 97.0574)" font-style="normal" font-weight="normal" font-size="240px" font-family="Arial" >
NH</text>
<path stroke="none" fill="#000000" transform="matrix(0.0833333 0 0 0.0833333 -28.2083 -626)" d="M 7734.76,8309.55 L 7725.69,8307.62 L 7721.66,8301.17 L 7970.86,8076.78 L 7978.36,8080.12 L 7979.33,8089.34 L 7734.76,8309.55 Z " />
<path stroke="none" fill="#000000" transform="matrix(0.0833333 0 0 0.0833333 -28.2083 -626)" d="M 7868.62,8610.2 L 7863.99,8618.23 L 7856.08,8618.91 L 7719.9,8313.05 L 7725.69,8307.62 L 7734.76,8309.55 L 7868.62,8610.2 Z " />
<path stroke="none" fill="#000000" transform="matrix(0.0833333 0 0 0.0833333 -28.2083 -626)" d="M 7800.56,8607.79 L 7786.85,8613.89 L 7677.31,8367.84 L 7691.01,8361.74 L 7800.56,8607.79 Z " />
<path stroke="none" fill="#000000" transform="matrix(0.0833333 0 0 0.0833333 -28.2083 -626)" d="M 8094.64,8586.44 L 8096.2,8601.36 L 7866.08,8625.55 L 7863.99,8618.23 L 7868.62,8610.2 L 8094.64,8586.44 Z " />
<path stroke="none" fill="#000000" transform="matrix(0.0833333 0 0 0.0833333 -28.2083 -626)" d="M 8264.34,8253.89 L 8272.81,8250.12 L 8279.45,8254.94 L 8235.91,8459.8 L 8221.24,8456.68 L 8264.34,8253.89 Z " />
<text x="0" y="0" stroke="none" fill="#0080c0" transform="matrix(0.0833333 0 0 0.0833333 738.55 57.1547)" font-style="normal" font-weight="bold" font-size="240px" font-family="Arial" >
N</text>
<path stroke="none" fill="#0080c0" transform="matrix(0.0833333 0 0 0.0833333 -28.2083 -626)" d="M 8790.77,8405.09 L 8773.45,8405.34 L 8837.33,8290.89 L 8850.32,8298.39 L 8790.77,8405.09 L 8790.77,8405.09 Z " />
<path stroke="none" fill="#0080c0" transform="matrix(0.0833333 0 0 0.0833333 -28.2083 -626)" d="M 8943.36,8100.88 L 8952.24,8115.75 L 8896.62,8215.42 L 8883.63,8207.92 L 8943.36,8100.88 L 8943.36,8100.88 Z " />
<path stroke="none" fill="#0080c0" transform="matrix(0.0833333 0 0 0.0833333 -28.2083 -626)" d="M 8960.61,8689.59 L 8952.17,8704.71 L 8773.45,8405.34 L 8790.77,8405.09 L 8960.61,8689.59 Z " />
<path stroke="none" fill="#0080c0" transform="matrix(0.0833333 0 0 0.0833333 -28.2083 -626)" d="M 9291.92,8684.76 L 9300.79,8699.63 L 8952.17,8704.71 L 8960.61,8689.59 L 9291.92,8684.76 Z " />
<path stroke="none" fill="#0080c0" transform="matrix(0.0833333 0 0 0.0833333 -28.2083 -626)" d="M 9453.38,8395.42 L 9470.7,8395.17 L 9300.79,8699.63 L 9291.92,8684.76 L 9453.38,8395.42 Z " />
<path stroke="none" fill="#0080c0" transform="matrix(0.0833333 0 0 0.0833333 -28.2083 -626)" d="M 9358.25,8236.06 L 9371.13,8228.37 L 9470.7,8395.17 L 9453.38,8395.42 L 9358.25,8236.06 Z " />
<path stroke="none" fill="#0080c0" transform="matrix(0.0833333 0 0 0.0833333 -28.2083 -626)" d="M 8952.24,8115.75 L 8943.36,8100.88 L 9179.01,8097.44 L 9179.23,8112.44 L 8952.24,8115.75 Z " />
<path stroke="none" fill="#ffffff" transform="matrix(0.0833333 0 0 0.0833333 -28.2083 -626)" d="M 8899.75,8401.21 A 224.046,224.046 0 1 0 9347.84,8401.21A 224.046,224.046 0 1 0 8899.75,8401.21Z " />
<path stroke="#0080c0" stroke-width="15" fill="none" transform="matrix(0.0833333 0 0 0.0833333 -28.2083 -626)" d="M 8899.75,8401.21 A 224.046,224.046 0 1 0 9347.84,8401.21A 224.046,224.046 0 1 0 8899.75,8401.21Z " />
<text x="0" y="0" stroke="none" fill="#0080c0" transform="matrix(0.0833333 0 0 0.0833333 715.198 81.0875)" font-style="normal" font-weight="normal" font-size="240px" font-family="Arial" >
Het</text>
<path stroke="none" fill="#000000" transform="matrix(0.0833333 0 0 0.0833333 -28.2083 -626)" d="M 8865.46,8243.62 L 8857.96,8256.61 L 8567.26,8088.78 L 8567.26,8080.12 L 8574.76,8075.79 L 8865.46,8243.62 Z " />
<path stroke="none" fill="#000000" transform="matrix(0.0833333 0 0 0.0833333 -28.2083 -626)" d="M 7390.37,8278.41 L 7384.74,8265.75 L 7721.66,8301.17 L 7725.69,8307.62 L 7719.9,8313.05 L 7390.37,8278.41 Z " />
<path stroke="none" fill="#000000" transform="matrix(0.0833333 0 0 0.0833333 -28.2083 -626)" d="M 7194.6,8547.87 L 7180.82,8546.43 L 7384.74,8265.75 L 7390.37,8278.41 L 7194.6,8547.87 Z " />
<path stroke="none" fill="#000000" transform="matrix(0.0833333 0 0 0.0833333 -28.2083 -626)" d="M 7262.84,8558.06 L 7253.14,8551.01 L 7411.45,8333.11 L 7421.15,8340.17 L 7262.84,8558.06 Z " />
<path stroke="none" fill="#000000" transform="matrix(0.0833333 0 0 0.0833333 -28.2083 -626)" d="M 7330.07,8852.15 L 7321.93,8863.36 L 7180.82,8546.43 L 7194.6,8547.87 L 7330.07,8852.15 Z " />
<path stroke="none" fill="#000000" transform="matrix(0.0833333 0 0 0.0833333 -28.2083 -626)" d="M 7661.32,8886.97 L 7666.96,8899.62 L 7321.93,8863.36 L 7330.07,8852.15 L 7661.32,8886.97 Z " />
<path stroke="none" fill="#000000" transform="matrix(0.0833333 0 0 0.0833333 -28.2083 -626)" d="M 7636.02,8822.77 L 7634.77,8834.7 L 7366.91,8806.55 L 7368.17,8794.62 L 7636.02,8822.77 Z " />
<path stroke="none" fill="#000000" transform="matrix(0.0833333 0 0 0.0833333 -28.2083 -626)" d="M 7856.08,8618.91 L 7863.99,8618.23 L 7866.08,8625.55 L 7666.96,8899.62 L 7661.32,8886.97 L 7856.08,8618.91 Z " />
<text x="0" y="0" stroke="none" fill="#000000" transform="matrix(0.0833333 0 0 0.0833333 169.292 149.833)" font-style="normal" font-weight="bold" font-size="240px" font-family="Arial" >
Compatible </text>
<text x="0" y="0" stroke="none" fill="#000000" transform="matrix(0.0833333 0 0 0.0833333 283.745 149.833)" font-style="normal" font-weight="bold" font-size="240px" font-family="Arial" >
with </text>
<text x="0" y="0" stroke="none" fill="#000000" transform="matrix(0.0833333 0 0 0.0833333 329.292 149.833)" font-style="normal" font-weight="bold" font-size="240px" font-family="Arial" >
diverse </text>
<text x="0" y="0" stroke="none" fill="#000000" transform="matrix(0.0833333 0 0 0.0833333 404.897 149.833)" font-style="italic" font-weight="bold" font-size="240px" font-family="Arial" >
N</text>
<text x="0" y="0" stroke="none" fill="#000000" transform="matrix(0.0833333 0 0 0.0833333 419.34 149.833)" font-style="normal" font-weight="bold" font-size="240px" font-family="Arial" >
-heterocycles </text>
<text x="0" y="0" stroke="none" fill="#000000" transform="matrix(0.0833333 0 0 0.0833333 553.852 149.833)" font-style="normal" font-weight="bold" font-size="240px" font-family="Arial" >
and </text>
<text x="0" y="0" stroke="none" fill="#000000" transform="matrix(0.0833333 0 0 0.0833333 594.965 149.833)" font-style="normal" font-weight="bold" font-size="240px" font-family="Arial" >
regisomers</text>
</svg>
